<svg width="48" height="48" xmlns="http://www.w3.org/2000/svg" style="vector-effect: non-scaling-stroke;" stroke="null">

 <g stroke="null">
  <title stroke="null">background</title>
  <rect stroke="null" fill="none" id="canvas_background" height="50" width="50" y="-1" x="-1"/>
 </g>
 <g stroke="null">
  <title stroke="null">Layer 1</title>
  <path stroke="null" id="svg_1" d="m30,10l-12,0c-0.55,0 -1,-0.45 -1,-1l0,-1c0,-0.55 0.45,-1 1,-1l12,0c0.55,0 1,0.45 1,1l0,1c0,0.55 -0.45,1 -1,1z" fill="#546E7A"/>
  <path style="vector-effect: non-scaling-stroke;" stroke="null" id="svg_2" d="m37,28l0,-6c0,-0.55 0.45,-1 1,-1l2,0c0.55,0 1,0.45 1,1l0,6c0,0.55 -0.45,1 -1,1l-2,0c-0.55,0 -1,-0.45 -1,-1zm-4.766,-15.713l-1.423,1.405c-0.391,0.386 -0.396,1.023 -0.009,1.414l5.37,4.875c0.386,0.391 1.023,0.396 1.414,0.009l1.423,-1.405c0.391,-0.386 0.396,-1.023 0.009,-1.414l-5.37,-4.875c-0.386,-0.391 -1.022,-0.395 -1.414,-0.009zm-0.234,20.713l0,-7c0,-0.55 -0.45,-1 -1,-1l-4,0c-0.55,0 -1,0.45 -1,1l0,7c0,0.55 0.45,1 1,1l4,0c0.55,0 1,-0.45 1,-1zm0,9l0,-5c0,-0.55 -0.45,-1 -1,-1l-4,0c-0.55,0 -1,0.45 -1,1l0,5c0,0.55 0.45,1 1,1l4,0c0.55,0 1,-0.45 1,-1zm-10,-9l0,-7c0,-0.55 -0.45,-1 -1,-1l-4,0c-0.55,0 -1,0.45 -1,1l0,7c0,0.55 0.45,1 1,1l4,0c0.55,0 1,-0.45 1,-1zm-11,-5l0,-6c0,-0.55 -0.45,-1 -1,-1l-2,0c-0.55,0 -1,0.45 -1,1l0,6c0,0.55 0.45,1 1,1l2,0c0.55,0 1,-0.45 1,-1zm3.351,-15.704l-5.37,4.875c-0.386,0.391 -0.382,1.028 0.009,1.414l1.423,1.405c0.391,0.386 1.028,0.382 1.414,-0.009l5.37,-4.875c0.386,-0.391 0.382,-1.028 -0.009,-1.414l-1.423,-1.405c-0.391,-0.386 -1.027,-0.382 -1.414,0.009zm7.649,29.704l0,-5c0,-0.55 -0.45,-1 -1,-1l-4,0c-0.55,0 -1,0.45 -1,1l0,5c0,0.55 0.45,1 1,1l4,0c0.55,0 1,-0.45 1,-1zm8,-29l0,-7.969c0,-0.569 -0.462,-1.031 -1.031,-1.031l-9.938,0c-0.569,0 -1.031,0.462 -1.031,1.031l0,7.969c0,0.57 0.462,1.031 1.031,1.031l9.938,0c0.569,0 1.031,-0.461 1.031,-1.031z" fill="#78909C"/>
  <path stroke="null" id="svg_3" d="m33,27l-18,0c-0.55,0 -1,-0.45 -1,-1l0,-13c0,-0.55 0.45,-1 1,-1l18,0c0.55,0 1,0.45 1,1l0,13c0,0.55 -0.45,1 -1,1z" fill="#90A4AE"/>
  <rect stroke="null" id="svg_4" height="6" width="10" fill="#263238" y="16" x="19"/>
  <path stroke="null" id="svg_5" d="m26,10l-4,0c-1.1,0 -2,-0.9 -2,-2l0,0c0,-1.1 0.9,-2 2,-2l4,0c1.1,0 2,0.9 2,2l0,0c0,1.1 -0.9,2 -2,2zm-7,27c1.105,0 2,-0.895 2,-2s-0.895,-2 -2,-2s-2,0.895 -2,2s0.895,2 2,2zm-10,-15c1.105,0 2,-0.895 2,-2s-0.895,-2 -2,-2s-2,0.895 -2,2s0.895,2 2,2zm32,-2c0,-1.105 -0.895,-2 -2,-2s-2,0.895 -2,2s0.895,2 2,2s2,-0.895 2,-2zm-12,17c1.105,0 2,-0.895 2,-2s-0.895,-2 -2,-2s-2,0.895 -2,2s0.895,2 2,2z" fill="#455A64"/>
  <path stroke="null" id="svg_6" d="m21,8c0,-0.552 0.448,-1 1,-1s1,0.448 1,1s-0.448,1 -1,1s-1,-0.448 -1,-1zm5,1c0.552,0 1,-0.448 1,-1s-0.448,-1 -1,-1s-1,0.448 -1,1s0.448,1 1,1z" fill="#18FFFF"/>
  <path stroke="null" id="svg_7" d="m27,21l-2,0l0,-4l2,0l0,4zm-4,-3l-2,0l0,3l2,0l0,-3z" fill="#1DE9B6"/>
  <path stroke="null" id="svg_8" d="m22,29l-6,0l0,-2l6,0l0,2zm10,-2l-6,0l0,2l6,0l0,-2zm-20,-7.174l2,-1.816l0,-5.395l-2,1.816l0,5.395zm22,-1.816l2,1.816l0,-5.395l-2,-1.816l0,5.395z" fill="#607D8B"/>
  <path stroke="null" id="svg_9" d="m12,31c0,0.553 -0.448,1 -1,1s-1,-0.447 -1,-1c0,-0.552 -0.449,-1 -1,-1s-1,0.448 -1,1c0,0.553 -0.448,1 -1,1s-1,-0.447 -1,-1c0,-0.986 0.484,-1.855 1.221,-2.402c0.183,0.238 0.457,0.402 0.779,0.402l2,0c0.322,0 0.596,-0.164 0.779,-0.402c0.737,0.547 1.221,1.416 1.221,2.402zm28.779,-2.402c-0.183,0.238 -0.457,0.402 -0.779,0.402l-2,0c-0.322,0 -0.596,-0.164 -0.779,-0.402c-0.737,0.547 -1.221,1.416 -1.221,2.402c0,0.553 0.447,1 1,1s1,-0.447 1,-1c0,-0.552 0.448,-1 1,-1s1,0.448 1,1c0,0.553 0.447,1 1,1s1,-0.447 1,-1c0,-0.986 -0.484,-1.855 -1.221,-2.402zm-17.779,15.402l0,0c0,-1.1 -0.9,-2 -2,-2l-4,0c-1.1,0 -2,0.9 -2,2l0,0l8,0zm10,0l0,0c0,-1.1 -0.9,-2 -2,-2l-4,0c-1.1,0 -2,0.9 -2,2l0,0l8,0z" fill="#90A4AE"/>
  <line style="vector-effect: non-scaling-stroke;" stroke-linecap="undefined" stroke-linejoin="undefined" id="svg_13" y2="5.250735" x2="28.31953" y1="5.250735" x1="24.751223" stroke-width="1.5" fill="#455A64"/>
  <ellipse stroke="null" style="vector-effect: non-scaling-stroke;" ry="1.377241" rx="1.064232" id="svg_14" cy="7.880014" cx="21.99674" stroke-width="1.5" fill="#455A64"/>
  <ellipse stroke="null" style="vector-effect: non-scaling-stroke;" ry="1.377241" rx="1.064232" id="svg_15" cy="8.06782" cx="26.00326" stroke-width="1.5" fill="#455A64"/>
  <line stroke="#000" stroke-linecap="undefined" stroke-linejoin="undefined" id="svg_16" y2="8.005218" x2="23.874796" y1="8.005218" x1="20.807304" fill-opacity="null" stroke-opacity="null" fill="none"/>
  <line stroke-linecap="undefined" stroke-linejoin="undefined" id="svg_17" y2="8.005218" x2="27.255298" y1="8.005218" x1="24.187806" fill-opacity="null" stroke-opacity="null" stroke="#000" fill="none"/>
 </g>
</svg>